HIERARCHY
ROOT Hips
{
 OFFSET 0.000000 0.000000 0.000000
 CHANNELS 6 Xposition Yposition Zposition Yrotation Xrotation Zrotation
 JOINT Chest
 {
  OFFSET 0.000000 9.585900 0.002600
  CHANNELS 3 Yrotation Xrotation Zrotation
  JOINT Chest2
  {
   OFFSET 0.000000 9.601200 -0.005300
   CHANNELS 3 Yrotation Xrotation Zrotation
   JOINT Chest3
   {
    OFFSET 0.000000 9.561800 0.000000
    CHANNELS 3 Yrotation Xrotation Zrotation
    JOINT Chest4
    {
     OFFSET 0.000000 9.552100 0.000000
     CHANNELS 3 Yrotation Xrotation Zrotation
     JOINT Neck
     {
      OFFSET 0.000000 14.453000 0.000000
      CHANNELS 3 Yrotation Xrotation Zrotation
      JOINT Head
      {
       OFFSET 0.000000 8.936500 -0.011300
       CHANNELS 3 Yrotation Xrotation Zrotation
       End Site
       {
        OFFSET 0.000000 17.073600 -0.006000
       }
      }
     }
     JOINT RightCollar
     {
      OFFSET -2.921100 9.558500 0.000000
      CHANNELS 3 Yrotation Xrotation Zrotation
      JOINT RightShoulder
      {
       OFFSET -13.519700 0.000000 0.000000
       CHANNELS 3 Yrotation Xrotation Zrotation
       JOINT RightElbow
       {
        OFFSET 0.000000 -29.696600 0.000000
        CHANNELS 3 Yrotation Xrotation Zrotation
        JOINT RightWrist
        {
         OFFSET 0.000000 -24.004700 0.000000
         CHANNELS 3 Yrotation Xrotation Zrotation
         End Site
         {
          OFFSET 0.000000 -17.728500 0.000000
         }
        }
       }
      }
     }
     JOINT LeftCollar
     {
      OFFSET 2.921100 9.558500 0.000000
      CHANNELS 3 Yrotation Xrotation Zrotation
      JOINT LeftShoulder
      {
       OFFSET 13.519700 0.000000 0.000000
       CHANNELS 3 Yrotation Xrotation Zrotation
       JOINT LeftElbow
       {
        OFFSET 0.000000 -29.696600 0.000000
        CHANNELS 3 Yrotation Xrotation Zrotation
        JOINT LeftWrist
        {
         OFFSET 0.000000 -24.004700 0.000000
         CHANNELS 3 Yrotation Xrotation Zrotation
         End Site
         {
          OFFSET 0.000000 -17.728500 0.000000
         }
        }
       }
      }
     }
    }
   }
  }
 }
 JOINT RightHip
 {
  OFFSET -7.771700 -0.012900 -0.001300
  CHANNELS 3 Yrotation Xrotation Zrotation
  JOINT RightKnee
  {
   OFFSET 0.000000 -40.869800 0.001200
   CHANNELS 3 Yrotation Xrotation Zrotation
   JOINT RightAnkle
   {
    OFFSET 0.000000 -39.717900 0.002100
    CHANNELS 3 Yrotation Xrotation Zrotation
    JOINT RightToe
    {
     OFFSET 0.000000 -4.965400 11.033500
     CHANNELS 3 Yrotation Xrotation Zrotation
     End Site
     {
      OFFSET 0.000000 -1.423100 5.872300
     }
    }
   }
  }
 }
 JOINT LeftHip
 {
  OFFSET 7.771700 -0.012900 -0.001300
  CHANNELS 3 Yrotation Xrotation Zrotation
  JOINT LeftKnee
  {
   OFFSET 0.000000 -40.869800 0.001200
   CHANNELS 3 Yrotation Xrotation Zrotation
   JOINT LeftAnkle
   {
    OFFSET 0.000000 -39.717900 0.002100
    CHANNELS 3 Yrotation Xrotation Zrotation
    JOINT LeftToe
    {
     OFFSET 0.000000 -4.965400 11.033500
     CHANNELS 3 Yrotation Xrotation Zrotation
     End Site
     {
      OFFSET 0.000000 -1.423100 5.872300
     }
    }
   }
  }
 }
}
MOTION
Frames: 13
Frame Time: 0.008333
-38.208874 52.153398 23.422943 -178.494131 -26.228641 -0.847224 3.019138 27.515636 -2.151989 0.624058 4.881931 -0.432109 0.963476 7.694272 -0.670600 2.657417 22.347743 -1.618586 -0.884884 19.983847 -9.183725 1.187288 -4.070613 -9.885781 12.160078 12.036128 13.886848 26.592031 -18.631032 -39.482794 -88.653330 -42.290727 18.359721 -14.212930 -9.584939 -5.843955 -11.197846 13.257389 -18.528055 -28.482389 -9.106370 46.923180 117.553660 -42.436039 -57.206037 21.675076 -9.184782 6.621045 -9.728426 -55.351600 -1.346096 -48.300275 82.464123 -55.649921 -3.384211 -4.752286 7.787862 0.026606 0.482318 -0.224027 0.568825 -54.654705 -3.604530 39.017172 83.293393 44.480461 -0.725983 -8.612645 -2.678949 -0.011733 0.102114 0.004885
-38.202224 52.148345 23.416515 -178.507781 -26.254355 -0.873708 3.039363 27.522591 -2.132389 0.628935 4.889682 -0.424943 0.939217 7.659197 -0.697769 2.630746 22.320268 -1.635418 -0.848182 19.969129 -9.184850 1.198997 -4.114979 -9.897564 12.222771 12.089940 13.919170 26.573682 -18.589910 -39.445591 -88.545223 -42.502265 18.397531 -14.242797 -9.659499 -5.436088 -11.155042 13.265811 -18.519895 -28.496639 -9.085622 46.992456 117.541483 -42.618231 -57.255141 21.672492 -9.163093 6.236841 -9.733663 -55.324131 -1.293692 -48.522595 82.519079 -55.875307 -3.421259 -4.999089 7.842090 0.025584 0.521361 -0.204756 0.559624 -54.636593 -3.558271 39.192904 83.300827 44.662140 -0.734783 -8.628962 -2.670102 -0.016273 0.108876 -0.001182
-38.191008 52.140714 23.414737 -178.542674 -26.247058 -0.903469 3.084860 27.496311 -2.099979 0.619051 4.872525 -0.438560 0.951063 7.673505 -0.685349 2.630827 22.318865 -1.635984 -0.846561 19.951780 -9.188366 1.177840 -4.189834 -9.916136 12.191508 12.078964 13.902001 26.603841 -18.487356 -39.363006 -88.501632 -42.741299 18.453586 -14.270244 -9.713976 -5.069761 -11.167933 13.221138 -18.523233 -28.501094 -9.058945 47.059464 117.544871 -42.800752 -57.320961 21.677879 -9.139129 5.841305 -9.736063 -55.329113 -1.199989 -48.871619 82.520765 -56.219092 -3.455664 -5.228128 7.886249 0.049174 0.557188 -0.180243 0.539371 -54.652107 -3.479231 39.304941 83.309561 44.777745 -0.738372 -8.644533 -2.665604 -0.025467 0.117032 -0.006038
-38.182540 52.134200 23.409407 -178.544574 -26.260774 -0.918904 3.078960 27.474326 -2.117953 0.611951 4.853060 -0.456099 0.972064 7.707306 -0.654523 2.602160 22.288689 -1.673704 -0.809581 19.961694 -9.165506 1.150979 -4.268880 -9.938870 12.195283 12.084387 13.915715 26.634547 -18.442809 -39.311003 -88.387058 -42.940144 18.439773 -14.291752 -9.745387 -4.740986 -11.151261 13.206840 -18.509417 -28.496268 -9.027941 47.120406 117.565988 -42.981032 -57.406186 21.687520 -9.119512 5.443691 -9.729983 -55.330030 -1.129604 -49.541251 82.543664 -56.907546 -3.542983 -5.485504 7.945262 0.090993 0.582977 -0.149964 0.520681 -54.643883 -3.441584 39.380175 83.316162 44.850320 -0.745032 -8.656068 -2.660445 -0.029604 0.125200 -0.010416
-38.181630 52.132619 23.392343 -178.465761 -26.349300 -0.914857 2.980711 27.530976 -2.193343 0.618746 4.869395 -0.440635 0.945604 7.658438 -0.704642 2.615028 22.302635 -1.668506 -0.831878 19.873188 -9.193278 1.192479 -4.263984 -9.928283 12.158820 12.061664 13.893281 26.685856 -18.383507 -39.206639 -88.285315 -43.131485 18.426587 -14.304172 -9.753178 -4.449917 -11.131086 13.194485 -18.492001 -28.484322 -8.997151 47.177654 117.602900 -43.154786 -57.512026 21.696961 -9.107496 5.056527 -9.725383 -55.255951 -1.193328 -50.311336 82.594783 -57.705319 -3.595170 -5.788157 8.017660 0.102644 0.598531 -0.135421 0.498609 -54.556572 -3.490815 39.471827 83.323515 44.933888 -0.763685 -8.682380 -2.658920 -0.014489 0.147258 -0.007787
-38.173276 52.125960 23.383826 -178.462293 -26.377585 -0.909949 2.962953 27.523716 -2.239406 0.609607 4.838403 -0.472411 0.955025 7.672778 -0.691366 2.620659 22.307651 -1.671582 -0.848008 19.812662 -9.213325 1.206728 -4.292331 -9.928691 12.153889 12.058385 13.897319 26.714628 -18.335274 -39.120379 -88.217289 -43.330390 18.435054 -14.307767 -9.743098 -4.199665 -11.123333 13.175233 -18.481361 -28.465667 -8.969099 47.233438 117.655808 -43.316169 -57.637425 21.701579 -9.102190 4.688072 -9.732169 -55.245630 -1.166488 -50.875929 82.612533 -58.296932 -3.626610 -6.030517 8.080523 0.104835 0.594048 -0.129190 0.499123 -54.531215 -3.489435 39.531049 83.331582 44.990273 -0.760313 -8.693985 -2.657837 -0.019786 0.153724 -0.011123
-38.166731 52.116498 23.379310 -178.455527 -26.376310 -0.885580 2.932254 27.457710 -2.337275 0.615672 4.853782 -0.457248 0.961454 7.689519 -0.675200 2.608915 22.292968 -1.698017 -0.857331 19.771056 -9.223798 1.199114 -4.339381 -9.938106 12.186981 12.083297 13.941214 26.719429 -18.321523 -39.094870 -88.154369 -43.496802 18.446403 -14.307048 -9.722289 -3.991402 -11.120585 13.156538 -18.471353 -28.432647 -8.934156 47.271485 117.741700 -43.467923 -57.803083 21.707192 -9.102771 4.340125 -9.736343 -55.276773 -1.147277 -51.406099 82.622939 -58.863475 -3.688620 -6.208413 8.129186 0.146416 0.544792 -0.108624 0.522867 -54.535922 -3.522376 39.579319 83.339815 45.035207 -0.762531 -8.724196 -2.660334 -0.020100 0.178441 -0.011413
-38.156613 52.109230 23.369150 -178.441429 -26.409868 -0.878478 2.914968 27.445509 -2.392243 0.616459 4.860920 -0.451693 0.967656 7.716966 -0.647724 2.584233 22.258474 -1.748309 -0.875348 19.725318 -9.237198 1.182709 -4.391075 -9.948718 12.133356 12.056541 13.901040 26.743244 -18.283760 -38.959846 -88.108679 -43.656575 18.480529 -14.306538 -9.694036 -3.827727 -11.117937 13.134860 -18.462604 -28.382354 -8.878916 47.279793 117.874791 -43.616613 -58.028210 21.720473 -9.109631 4.012129 -9.761805 -55.266853 -1.111986 -51.931394 82.655233 -59.432915 -3.733404 -6.403150 8.195256 0.154397 0.497464 -0.102641 0.511135 -54.506721 -3.519411 39.680841 83.348842 45.128706 -0.772975 -8.740273 -2.663376 -0.014136 0.186813 -0.011079
-38.144061 52.101864 23.358528 -178.428065 -26.445069 -0.878742 2.904557 27.447156 -2.427739 0.616527 4.875775 -0.437330 0.961372 7.692651 -0.671973 2.585481 22.256899 -1.763819 -0.903269 19.674816 -9.253223 1.156170 -4.448178 -9.959846 12.107260 12.044074 13.890127 26.748407 -18.260968 -38.863039 -88.088393 -43.733569 18.509744 -14.290522 -9.710371 -3.672796 -11.112945 13.108978 -18.455347 -28.368051 -8.864849 47.360803 117.932403 -43.716671 -58.155931 21.736685 -9.117772 3.709115 -9.800548 -55.252169 -1.059806 -52.342679 82.691073 -59.887671 -3.788197 -6.558302 8.248896 0.166061 0.429861 -0.090370 0.461874 -54.472830 -3.476590 39.751162 83.357634 45.175570 -0.786978 -8.767957 -2.667658 -0.003883 0.205406 -0.009337
-38.131182 52.094573 23.347638 -178.411998 -26.482006 -0.876832 2.890308 27.460553 -2.457389 0.615601 4.881895 -0.432180 0.957608 7.671310 -0.695783 2.587708 22.253929 -1.780920 -0.940166 19.619647 -9.270680 1.120100 -4.510704 -9.970505 12.118114 12.053128 13.923884 26.725863 -18.256873 -38.817082 -88.064382 -43.801199 18.547014 -14.286239 -9.716437 -3.563190 -11.093874 13.119141 -18.427206 -28.370325 -8.875185 47.418095 118.023331 -43.816163 -58.325610 21.752842 -9.119248 3.433886 -9.814520 -55.228099 -1.047719 -52.632485 82.727247 -60.197175 -3.820331 -6.701696 8.287207 0.161362 0.367606 -0.078835 0.427689 -54.436287 -3.456843 39.821571 83.364537 45.235427 -0.791428 -8.792094 -2.676329 0.003576 0.222077 -0.005643
-38.120806 52.088725 23.334220 -178.355843 -26.536660 -0.874698 2.829526 27.509358 -2.491722 0.616565 4.856039 -0.458691 0.957927 7.667740 -0.701776 2.597967 22.269299 -1.767392 -1.004677 19.539470 -9.318394 1.074766 -4.580352 -9.979930 12.075452 12.019326 13.878504 26.712751 -18.240149 -38.719400 -88.064361 -43.918980 18.616120 -14.286506 -9.658327 -3.519115 -11.106859 13.049026 -18.456155 -28.337719 -8.823261 47.467359 118.135029 -43.911991 -58.513527 21.769228 -9.108606 3.185934 -9.862567 -55.200458 -1.030186 -53.104323 82.758482 -60.708157 -3.907154 -6.767689 8.295330 0.219955 0.249537 -0.033700 0.381460 -54.380737 -3.466264 39.871317 83.372428 45.275450 -0.808409 -8.831905 -2.689631 0.020255 0.251545 0.000516
-38.105914 52.080297 23.326800 -178.362258 -26.553215 -0.868892 2.839218 27.494450 -2.519468 0.621949 4.823669 -0.497058 0.958692 7.670094 -0.703631 2.607560 22.280340 -1.768346 -1.048750 19.479480 -9.323039 1.019991 -4.659439 -9.988269 12.059721 12.003181 13.879163 26.694678 -18.222138 -38.624631 -88.069222 -44.024714 18.709141 -14.284226 -9.599871 -3.512431 -11.096251 13.018551 -18.454072 -28.311820 -8.778199 47.520966 118.249732 -44.003824 -58.696248 21.783180 -9.083749 2.964787 -9.890975 -55.205821 -0.967990 -53.487481 82.754048 -61.122997 -3.932087 -6.807681 8.301861 0.242893 0.148504 -0.001719 0.382810 -54.365522 -3.459017 39.957954 83.377081 45.366755 -0.805343 -8.851474 -2.694975 0.013728 0.262656 -0.003309
-38.090114 52.072370 23.319420 -178.359795 -26.571403 -0.872430 2.848082 27.483757 -2.542265 0.624353 4.823972 -0.500221 0.958743 7.658388 -0.719825 2.605690 22.274432 -1.790561 -1.102836 19.408829 -9.327932 0.955932 -4.750456 -9.995111 12.061260 11.996159 13.894203 26.674475 -18.202630 -38.549498 -88.090230 -44.124440 18.797648 -14.277519 -9.533548 -3.504227 -11.081111 13.007826 -18.441663 -28.300098 -8.759630 47.571003 118.368758 -44.090315 -58.875015 21.792393 -9.046473 2.767061 -9.915046 -55.202431 -0.923695 -53.766069 82.747439 -61.417656 -3.934819 -6.823122 8.303767 0.247613 0.049338 0.022462 0.341751 -54.347622 -3.418142 40.050875 83.378555 45.449628 -0.811603 -8.875880 -2.703512 0.014378 0.279497 -0.003250
